<svg xmlns="http://www.w3.org/2000/svg" width="3138.249" height="2274.194"><g transform="translate(69.124 69.124) scale(6.91244)"><defs><linearGradient id="c"><stop stop-color="#b88746" offset="0"/><stop stop-color="#fdf5a6" offset="1"/></linearGradient><linearGradient id="d"><stop stop-color="#b88746" offset="0"/><stop stop-color="#fdf5a6" offset="1"/></linearGradient><linearGradient id="b"><stop stop-color="#b88746" offset="0"/><stop stop-color="#fdf5a6" offset="1"/></linearGradient><linearGradient id="a"><stop stop-color="#b88746" offset="0"/><stop stop-color="#fdf5a6" offset="1"/></linearGradient></defs><g xmlns="http://www.w3.org/2000/svg" fill="url(#a)" transform="translate(144 20) scale(.71201)"><path d="M102.174 199.588c53.8 0 97.413-43.613 97.413-97.413S155.974 4.762 102.174 4.762 4.761 48.375 4.761 102.175s43.614 97.413 97.413 97.413zm0-189.826c50.957 0 92.413 41.457 92.413 92.413s-41.456 92.413-92.413 92.413c-50.957 0-92.413-41.457-92.413-92.413S51.218 9.762 102.174 9.762z"/><path d="M102.174 191.585c49.38 0 89.41-40.03 89.41-89.41s-40.03-89.41-89.41-89.41c-49.38 0-89.41 40.03-89.41 89.41s40.03 89.41 89.41 89.41zm0-176.82c48.198 0 87.41 39.212 87.41 87.41s-39.212 87.41-87.41 87.41c-48.198 0-87.41-39.212-87.41-87.41s39.212-87.41 87.41-87.41z"/><path d="M102.174 204.35c56.339 0 102.174-45.835 102.174-102.175S158.513 0 102.174 0C45.835 0 0 45.835 0 102.175S45.835 204.35 102.174 204.35zm0-202.35c55.236 0 100.174 44.938 100.174 100.175S157.411 202.35 102.174 202.35C46.938 202.35 2 157.411 2 102.175S46.938 2 102.174 2z"/></g><path d="M85.2 51l-.2-.6-.6-.2c-.6-.2-14.3-5.3-23.4 3.1-2.8 2.6-4.3 5.5-4.3 8.6 0 5 3.7 8.7 4.1 9.1l-10.3 9.5V52.6h1.1c2.1 0 7.5-.4 11.5-4.1 2.9-2.7 4.4-6.6 4.4-11.6 0-6.7-3.1-13.2-8.9-18.8-4.3-4.2-8.6-6.3-8.8-6.4l-.6-.3-.6.3c-.2.1-4.5 2.3-8.8 6.4C34.1 23.8 31 30.3 31 37c0 4 1 7.3 2.9 9.8-9.3-4.7-20.1.3-20.6.5l-.6.3-.1.7c-.1.6-2.9 14.9 6.8 22.6 2.5 2 5.1 3 7.7 3 .5 0 1 0 1.6-.1 4.2-.7 7-3.8 8-5.1L48 77.6l.1-.2v12.8H27.8v3h42v-3H50.6v-6L62.7 73c.8 1 4 4.3 8.6 4.6h.8c2.8 0 5.6-1.2 8.2-3.6 9-8.3 5.1-22.4 4.9-23zM49.3 14.4c2.9 1.7 15.6 9.6 15.6 22.5 0 4.2-1.2 7.5-3.6 9.7-4 3.8-10.2 3.4-10.3 3.4l-.4-.1v-34H48v34l-.6.1c-1 0-6.4.1-10.1-3.3-2.4-2.2-3.6-5.5-3.6-9.7-.1-12.9 12.7-20.9 15.6-22.6zM28.1 71.1c-2.3.4-4.7-.4-7.2-2.3-7.3-5.8-6.4-16.5-6-19.3 2.6-1 12.8-4.5 20.2 1.3 2.4 1.9 3.7 4.1 3.9 6.4.3 4-2.7 7.4-2.8 7.4l-.2.3-18.2-14.4-1.6 2.1L34.4 67c-.7 1-3 3.6-6.3 4.1zm10-4.5l.1-.2c.2-.2 3.9-4.3 3.5-9.4-.2-2.1-1-4.1-2.5-5.9 4.1 1.9 8.3 1.6 8.5 1.6h.2v21.7l-9.8-7.8zM71.4 75c-3.6-.3-6.4-3.2-6.8-3.8l16-14.8-1.8-1.9-16 14.8-.1-.1s-3.3-3.1-3.3-7.2c0-2.4 1.2-4.6 3.4-6.7 6.9-6.3 17.3-3.7 20-2.8.6 2.7 2.4 13.4-4.4 19.7-2.3 2-4.6 3-7 2.8zm4.4 15.2h10v3h-10zm-59 0h6v3h-6z" fill="url(#b)" transform="translate(170.516 43.225) scale(.94517)"/><path d="M8 9.84L14.06 24h-2.24l-1.42-3.5H3.66L2.26 24H.02L6.26 9.84H8zm-3.66 8.98H9.7l-2.64-6.5h-.04zm13.04-9.94V24h-1.8V8.88h1.8zm3.9.92q.54 0 .93.39t.39.93q0 .56-.4.94t-.92.38q-.56 0-.94-.38t-.38-.94.4-.94.92-.38zm.9 4.72V24h-1.8v-9.48h1.8zm11.6-4.68l4.5 10.72h.08l4.46-10.72h2.86V24h-1.92V12.36h-.04L38.94 24h-1.28l-4.78-11.64h-.04V24h-1.92V9.84h2.86zm19.52 4.44q2.1 0 3.56 1.45t1.48 3.53q0 2.1-1.46 3.52t-3.58 1.46q-2.08 0-3.54-1.44t-1.5-3.54q0-2.06 1.45-3.5t3.59-1.48zm-3.12 4.98q0 1.46.86 2.37t2.26.93q1.42 0 2.26-.91t.86-2.39q0-1.46-.84-2.37t-2.3-.93q-1.42 0-2.26.94t-.84 2.36zm15.1-4.98q.5 0 .8.12L66 16.34q-.52-.14-.9-.14-2.66 0-2.7 2.96V24h-1.8v-9.48h1.8v1.46h.04q.36-.76 1.16-1.23t1.68-.47zm7.88 0q2.1 0 3.43 1.38t1.37 3.6q0 2.22-1.36 3.59t-3.46 1.39q-1.04 0-1.94-.44t-1.36-1.16h-.04v7H68V14.52h1.8v1.36h.04q.54-.76 1.42-1.18t1.9-.42zm-3.36 4.98q0 1.48.87 2.39t2.25.91q1.44 0 2.27-.91t.85-2.39q0-1.48-.85-2.38t-2.29-.92q-1.42 0-2.26.93t-.84 2.37zm14.76-4.98q2.18 0 3.39 1.37t1.23 3.77v.5h-7.6q0 1.16.93 1.95t2.27.81q1.48 0 2.6-1.42l1.36 1.04q-1.52 1.94-4.2 1.94-2.18 0-3.51-1.39t-1.37-3.59q0-2.12 1.37-3.53t3.53-1.45zm2.7 4.2q-.04-1.34-.76-2.05t-1.98-.71q-.84 0-1.51.41t-1.05 1.06-.38 1.29h5.68zm6.58-6.62v2.66h2.58v1.56h-2.58v4.56q0 .92.26 1.42t1.1.5q.8 0 1.28-.28v1.64q-.52.28-1.64.32-1.08 0-1.67-.33t-.86-.92-.27-1.85v-5.06h-2.08v-1.56h2.08v-2.66h1.8zm6.7-2.98v7.1h.04q.38-.8 1.23-1.25t1.89-.45q1.58 0 2.51.96t.93 2.58V24h-1.8v-5.66q0-1.1-.57-1.74t-1.59-.64q-1.26 0-1.94.82t-.7 2.26V24h-1.8V8.88h1.8z" fill="url(#c)" transform="translate(-.081 160.022) scale(4.05153)"/><path d="M4.4 11.92v7.46c0 .34-.28.62-.62.62H2.2a.62.62 0 01-.6-.62V5.7c0-.34.44-.42.68-.2l8.78 8.3c.26.24.46.14.46-.2V6c0-.34.28-.62.62-.62h1.56c.34 0 .62.28.62.62v13.66c0 .34-.44.42-.7.2L4.86 11.7c-.26-.22-.46-.12-.46.22zm16.82 7.9c-.78-.3-1.44-.7-1.98-1.24-.56-.54-.98-1.18-1.28-1.94s-.44-1.6-.44-2.54V6c0-.34.28-.62.6-.62h1.58c.34 0 .62.28.62.62v8.08c0 .74.12 1.34.36 1.82s.54.86.88 1.14c.36.28.74.48 1.14.58.42.1.78.16 1.1.16s.68-.06 1.08-.16c.42-.1.8-.3 1.14-.58.36-.28.66-.66.9-1.14s.36-1.08.36-1.82V6c0-.34.28-.62.62-.62h1.56c.34 0 .62.28.62.62v8.1c0 .94-.16 1.78-.44 2.54-.3.76-.72 1.4-1.26 1.94-.56.54-1.22.94-1.98 1.24-.78.3-1.64.44-2.6.44s-1.82-.14-2.58-.44zM43.18 7.84h-2.94c-.34 0-.62.28-.62.62v10.92c0 .34-.28.62-.62.62h-1.56c-.34 0-.62-.28-.62-.62V8.46c0-.34-.28-.62-.62-.62h-2.96c-.34 0-.62-.28-.62-.62V5.98c0-.34.28-.62.62-.62h9.94c.34 0 .62.28.62.62v1.24c0 .34-.28.62-.62.62zM47.92 20h-1.58c-.34 0-.62-.28-.62-.62V5.98c0-.34.28-.62.62-.62h6.04c.74 0 1.44.12 2.06.36.62.26 1.14.6 1.58 1.04.44.46.8.98 1.04 1.6s.36 1.3.36 2.04c0 1.1-.26 2.08-.82 2.9-.44.66-1 1.16-1.66 1.52-.3.16-.4.48-.18.74.98 1.32 1.84 2.46 2.8 3.78.2.28.1.66-.24.66H55.3c-.34 0-.78-.22-.98-.48-.46-.6-.9-1.22-1.34-1.82l-1.32-1.86c-.2-.28-.64-.5-.98-.5h-1.54c-.34 0-.62.28-.62.62v3.42c0 .34-.26.62-.6.62zm1.22-7.14h3.24c.24 0 .52-.06.78-.16.28-.1.52-.24.74-.46.2-.2.38-.46.52-.76s.2-.66.2-1.08c0-.22-.02-.46-.08-.76-.04-.3-.16-.58-.3-.84-.16-.26-.4-.5-.68-.68-.3-.18-.7-.28-1.18-.28h-3.24c-.34 0-.62.28-.62.62v3.78c0 .34.28.62.62.62zM62.7 20h-1.58c-.34 0-.6-.28-.6-.62V6c0-.34.26-.62.6-.62h1.58c.34 0 .62.28.62.62v13.38c0 .34-.28.62-.62.62zM76.82 7.84h-2.94c-.34 0-.62.28-.62.62v10.92c0 .34-.28.62-.62.62h-1.56c-.34 0-.62-.28-.62-.62V8.46c0-.34-.28-.62-.62-.62h-2.96c-.34 0-.62-.28-.62-.62V5.98c0-.34.28-.62.62-.62h9.94c.34 0 .62.28.62.62v1.24c0 .34-.28.62-.62.62zM81.94 20h-1.58c-.34 0-.6-.28-.6-.62V6c0-.34.26-.62.6-.62h1.58c.34 0 .62.28.62.62v13.38c0 .34-.28.62-.62.62zm11.06.28c-4.18 0-7.58-3.4-7.58-7.6 0-4.18 3.4-7.6 7.58-7.6 4.2 0 7.6 3.42 7.6 7.6 0 4.2-3.4 7.6-7.6 7.6zM93 7.7c-2.64 0-4.8 2.34-4.8 4.98 0 2.66 2.16 5 4.8 5 2.66 0 4.8-2.34 4.8-5 0-2.64-2.14-4.98-4.8-4.98zm12.88 4.22v7.46c0 .34-.28.62-.62.62h-1.58a.62.62 0 01-.6-.62V5.7c0-.34.44-.42.68-.2l8.78 8.3c.26.24.46.14.46-.2V6c0-.34.28-.62.62-.62h1.56c.34 0 .62.28.62.62v13.66c0 .34-.44.42-.7.2l-8.76-8.16c-.26-.22-.46-.12-.46.22zm34.7-6.22v13.68c0 .34-.28.62-.6.62h-1.58c-.34 0-.62-.28-.62-.62v-6.16c0-.34-.18-.42-.38-.14l-3.8 4.54c-.22.26-.58.26-.78 0l-3.78-4.54c-.22-.26-.4-.2-.4.14v6.16c0 .34-.28.62-.62.62h-1.56c-.34 0-.62-.28-.62-.62V5.7c0-.34.42-.4.64-.14l6.32 7.8c.22.24.58.24.8 0l6.34-7.8c.22-.26.64-.2.64.14zm2.02 13.76l6.94-13.86c.16-.32.64-.32.8 0l6.94 13.86c.16.3.02.54-.32.54h-1.82c-.34 0-.74-.24-.88-.56l-.6-1.2c-.16-.3-.54-.54-.88-.54h-5.68c-.34 0-.74.24-.88.56l-.58 1.18c-.16.32-.54.56-.88.56h-1.82c-.34 0-.48-.24-.34-.54zm5.86-4.2h2.96c.34 0 .48-.26.34-.56l-1.56-3.3c-.14-.32-.38-.32-.52 0l-1.58 3.3c-.14.32.02.56.36.56zM165.04 20h-5.16c-.34 0-.6-.28-.6-.62V5.98c0-.34.26-.62.6-.62h5.16c2.1 0 3.82.62 5.16 1.84.72.66 1.26 1.44 1.62 2.36.36.94.56 1.98.56 3.12 0 1.16-.2 2.2-.56 3.12-.36.94-.9 1.72-1.62 2.38-.66.6-1.42 1.06-2.3 1.36-.86.3-1.82.46-2.86.46zm-2.36-2.48h2.38c.52 0 1.04-.06 1.58-.18.52-.12 1-.36 1.44-.72.44-.34.8-.84 1.08-1.46s.42-1.44.42-2.46-.14-1.84-.42-2.48c-.28-.62-.64-1.12-1.08-1.46s-.94-.58-1.46-.7c-.54-.12-1.06-.18-1.56-.18h-2.38c-.34 0-.6.28-.6.62v8.4c0 .34.26.62.6.62zm15.12-9.06v2.42c0 .34.28.62.62.62h5.84c.34 0 .62.28.62.62v1.3c0 .34-.28.62-.62.62h-5.84c-.34 0-.62.28-.62.62v2.2c0 .34.28.62.62.62h6.74c.34 0 .62.28.62.62v1.28c0 .34-.28.62-.62.62h-9.54c-.34 0-.62-.28-.62-.62V5.98c0-.34.28-.62.62-.62h9.54c.34 0 .62.28.62.62v1.24c0 .34-.28.62-.62.62h-6.74c-.34 0-.62.28-.62.62zm17.46 9.12l.84-1.24c.18-.28.56-.34.84-.16.58.36 1.16.68 1.76.96.78.38 1.6.56 2.46.56.46 0 .86-.06 1.2-.18.34-.1.64-.26.88-.44s.42-.38.54-.62c.12-.22.18-.46.18-.68 0-.3-.1-.54-.28-.76-.18-.2-.42-.36-.72-.5s-.64-.24-1.06-.34c-.4-.1-.82-.18-1.26-.26-.3-.06-.64-.12-1.02-.2-.38-.06-.78-.16-1.2-.3-.42-.12-.82-.28-1.22-.5-.4-.2-.76-.46-1.08-.78-.32-.3-.58-.68-.78-1.12-.18-.42-.28-.94-.28-1.52 0-.86.18-1.56.52-2.14.34-.56.78-1 1.32-1.34.54-.32 1.14-.54 1.8-.68s1.3-.2 1.92-.2 1.16.04 1.64.12.92.2 1.34.34c.42.16.82.36 1.2.58.26.16.5.32.78.48.28.2.34.58.14.86l-.84 1.2c-.2.28-.58.34-.88.16-.5-.32-1-.58-1.48-.76-.64-.26-1.32-.38-2.02-.38-.24 0-.52.02-.82.08s-.6.16-.88.3c-.26.14-.5.3-.68.5-.18.22-.26.46-.26.76s.1.54.32.74.48.36.82.5.7.24 1.1.34.78.18 1.16.28c.28.06.6.14.98.2s.78.16 1.18.28c.22.06.44.14.66.22.32.14.8.38 1.08.58.2.12.38.28.54.44.32.32.58.7.76 1.16.2.46.3 1.02.3 1.68 0 .76-.14 1.42-.4 1.98s-.64 1.02-1.14 1.38c-.5.38-1.08.66-1.76.84s-1.44.28-2.26.28c-.76 0-1.44-.06-2.02-.18-.58-.1-1.1-.26-1.58-.46a7.85 7.85 0 01-1.36-.68c-.26-.16-.54-.34-.82-.54-.28-.18-.34-.56-.16-.84zM211.68 20h-1.58c-.34 0-.6-.28-.6-.62V6c0-.34.26-.62.6-.62h1.58c.34 0 .62.28.62.62v13.38c0 .34-.28.62-.62.62zm18.96-14.3v13.68c0 .34-.28.62-.6.62h-1.58c-.34 0-.62-.28-.62-.62v-6.16c0-.34-.18-.42-.38-.14l-3.8 4.54c-.22.26-.58.26-.78 0l-3.78-4.54c-.22-.26-.4-.2-.4.14v6.16c0 .34-.28.62-.62.62h-1.56c-.34 0-.62-.28-.62-.62V5.7c0-.34.42-.4.64-.14l6.32 7.8c.22.24.58.24.8 0l6.34-7.8c.22-.26.64-.2.64.14zm11.78.06c.62.28 1.18.66 1.64 1.12.48.46.84 1.02 1.12 1.64.26.64.4 1.32.4 2.04s-.12 1.38-.36 2-.58 1.14-1.06 1.6c-.46.46-1.06.82-1.76 1.08-.72.26-1.54.4-2.48.4h-2.64c-.34 0-.62.28-.62.62v3.12c0 .34-.26.62-.6.62h-1.58c-.34 0-.62-.28-.62-.62V5.98c0-.34.28-.62.62-.62h5.9c.72 0 1.4.14 2.04.4zm-.96 7.14c.32-.14.56-.32.76-.56.18-.24.34-.52.42-.82.1-.3.14-.62.14-.96s-.06-.66-.18-1c-.12-.32-.28-.6-.52-.86-.22-.26-.5-.46-.84-.62-.32-.16-.72-.24-1.16-.24h-2.8c-.34 0-.62.28-.62.62v4.04c0 .34.28.62.62.62h3.1c.42 0 .78-.08 1.08-.22zm16.5 5.24v1.24c0 .34-.28.62-.62.62h-9.3c-.34 0-.62-.28-.62-.62V5.98c0-.34.28-.62.62-.62h1.56c.34 0 .62.28.62.62V16.9c0 .34.28.62.62.62h6.5c.34 0 .62.28.62.62zm4.56-9.68v2.42c0 .34.28.62.62.62h5.84c.34 0 .62.28.62.62v1.3c0 .34-.28.62-.62.62h-5.84c-.34 0-.62.28-.62.62v2.2c0 .34.28.62.62.62h6.74c.34 0 .62.28.62.62v1.28c0 .34-.28.62-.62.62h-9.54c-.34 0-.62-.28-.62-.62V5.98c0-.34.28-.62.62-.62h9.54c.34 0 .62.28.62.62v1.24c0 .34-.28.62-.62.62h-6.74c-.34 0-.62.28-.62.62z" fill="url(#d)" transform="translate(85.45 290.08) scale(.96839)"/></g></svg>