
		<svg xmlns="http://www.w3.org/2000/svg" xmlns:xlink="http://www.w3.org/1999/xlink" version="1.1" width="3138.2488479262674" height="2274.193548387097">
			
			<g transform="scale(6.912442396313364) translate(10, 10)">
				<defs id="SvgjsDefs7554"><linearGradient id="SvgjsLinearGradient7560"><stop id="SvgjsStop7561" stop-color="#b88746" offset="0"></stop><stop id="SvgjsStop7562" stop-color="#fdf5a6" offset="1"></stop></linearGradient><linearGradient id="SvgjsLinearGradient7563"><stop id="SvgjsStop7564" stop-color="#b88746" offset="0"></stop><stop id="SvgjsStop7565" stop-color="#fdf5a6" offset="1"></stop></linearGradient><linearGradient id="SvgjsLinearGradient7566"><stop id="SvgjsStop7567" stop-color="#b88746" offset="0"></stop><stop id="SvgjsStop7568" stop-color="#fdf5a6" offset="1"></stop></linearGradient><linearGradient id="SvgjsLinearGradient7569"><stop id="SvgjsStop7570" stop-color="#b88746" offset="0"></stop><stop id="SvgjsStop7571" stop-color="#fdf5a6" offset="1"></stop></linearGradient></defs><g id="SvgjsG7555" featureKey="root" fill="#1a5c5a"></g><g id="SvgjsG7556" featureKey="container1" fill="url(#SvgjsLinearGradient7569)" transform="matrix(0.7120136807155046,0,0,0.7120136807155046,144,20)"><defs xmlns="http://www.w3.org/2000/svg"></defs><g xmlns="http://www.w3.org/2000/svg">  <path d="M102.174,199.588c53.8,0,97.413-43.613,97.413-97.413S155.974,4.762,102.174,4.762S4.761,48.375,4.761,102.175    S48.375,199.588,102.174,199.588z M102.174,9.762c50.957,0,92.413,41.457,92.413,92.413s-41.456,92.413-92.413,92.413    c-50.957,0-92.413-41.457-92.413-92.413S51.218,9.762,102.174,9.762z"></path>  <path d="M102.174,191.585c49.38,0,89.41-40.03,89.41-89.41s-40.03-89.41-89.41-89.41c-49.38,0-89.41,40.03-89.41,89.41    S52.794,191.585,102.174,191.585z M102.174,14.765c48.198,0,87.41,39.212,87.41,87.41s-39.212,87.41-87.41,87.41    c-48.198,0-87.41-39.212-87.41-87.41S53.976,14.765,102.174,14.765z"></path>  <path d="M102.174,204.35c56.339,0,102.174-45.835,102.174-102.175S158.513,0,102.174,0C45.835,0,0,45.835,0,102.175    S45.835,204.35,102.174,204.35z M102.174,2c55.236,0,100.174,44.938,100.174,100.175S157.411,202.35,102.174,202.35    C46.938,202.35,2,157.411,2,102.175S46.938,2,102.174,2z"></path></g></g><g id="SvgjsG7557" featureKey="symbol1" fill="url(#SvgjsLinearGradient7566)" transform="matrix(0.9451721179252373,0,0,0.9451721179252373,170.51619518321786,43.225035512047725)"><g><path d="M85.2,51L85,50.4l-0.6-0.2C83.8,50,70.1,44.9,61,53.3c-2.8,2.6-4.3,5.5-4.3,8.6c0,5,3.7,8.7,4.1,9.1l-10.3,9.5V52.6h0.2   c0.1,0,0.4,0,0.9,0c2.1,0,7.5-0.4,11.5-4.1c2.9-2.7,4.4-6.6,4.4-11.6c0-6.7-3.1-13.2-8.9-18.8c-4.3-4.2-8.6-6.3-8.8-6.4l-0.6-0.3   l-0.6,0.3c-0.2,0.1-4.5,2.3-8.8,6.4C34.1,23.8,31,30.3,31,37c0,4,1,7.3,2.9,9.8c-9.3-4.7-20.1,0.3-20.6,0.5l-0.6,0.3l-0.1,0.7   c-0.1,0.6-2.9,14.9,6.8,22.6c2.5,2,5.1,3,7.7,3c0.5,0,1,0,1.6-0.1c4.2-0.7,7-3.8,8-5.1l11.3,8.9l0.1-0.2v12.8H27.8v3h42v-3H50.6v-6   L62.7,73c0.8,1,4,4.3,8.6,4.6c0.3,0,0.5,0,0.8,0c2.8,0,5.6-1.2,8.2-3.6C89.3,65.7,85.4,51.6,85.2,51z M49.3,14.4   c2.9,1.7,15.6,9.6,15.6,22.5c0,4.2-1.2,7.5-3.6,9.7C57.3,50.4,51.1,50,51,50l-0.4-0.1v-34H48v34L47.4,50c-1,0-6.4,0.1-10.1-3.3   c-2.4-2.2-3.6-5.5-3.6-9.7C33.6,24.1,46.4,16.1,49.3,14.4z M28.1,71.1c-2.3,0.4-4.7-0.4-7.2-2.3c-7.3-5.8-6.4-16.5-6-19.3   c2.6-1,12.8-4.5,20.2,1.3c2.4,1.9,3.7,4.1,3.9,6.4c0.3,4-2.7,7.4-2.8,7.4L36,64.9L17.8,50.5l-1.6,2.1L34.4,67   C33.7,68,31.4,70.6,28.1,71.1z M38.1,66.6l0.1-0.2c0.2-0.2,3.9-4.3,3.5-9.4c-0.2-2.1-1-4.1-2.5-5.9c4.1,1.9,8.3,1.6,8.5,1.6l0.2,0   v21.7L38.1,66.6z M71.4,75c-3.6-0.3-6.4-3.2-6.8-3.8l16-14.8l-1.8-1.9l-16,14.8c0,0-0.1-0.1-0.1-0.1c0,0-3.3-3.1-3.3-7.2   c0-2.4,1.2-4.6,3.4-6.7c6.9-6.3,17.3-3.7,20-2.8c0.6,2.7,2.4,13.4-4.4,19.7C76.1,74.2,73.8,75.2,71.4,75z"></path><rect x="75.8" y="90.2" width="10" height="3"></rect><rect x="16.8" y="90.2" width="6" height="3"></rect></g></g><g id="SvgjsG7558" featureKey="text1" fill="url(#SvgjsLinearGradient7560)" transform="matrix(4.051530600834704,0,0,4.051530600834704,-0.08102956877971153,160.02240780092694)"><path d="M8 9.84 l6.06 14.16 l-2.24 0 l-1.42 -3.5 l-6.74 0 l-1.4 3.5 l-2.24 0 l6.24 -14.16 l1.74 0 z M4.34 18.82 l5.36 0 l-2.64 -6.5 l-0.04 0 z M17.38 8.88 l0 15.12 l-1.8 0 l0 -15.12 l1.8 0 z M21.279999999999998 9.8 q0.54 0 0.93 0.39 t0.39 0.93 q0 0.56 -0.4 0.94 t-0.92 0.38 q-0.56 0 -0.94 -0.38 t-0.38 -0.94 t0.4 -0.94 t0.92 -0.38 z M22.18 14.52 l0 9.48 l-1.8 0 l0 -9.48 l1.8 0 z  M33.78 9.84 l4.5 10.72 l0.08 0 l4.46 -10.72 l2.86 0 l0 14.16 l-1.92 0 l0 -11.64 l-0.04 0 l-4.78 11.64 l-1.28 0 l-4.78 -11.64 l-0.04 0 l0 11.64 l-1.92 0 l0 -14.16 l2.86 0 z M53.3 14.28 q2.1 0 3.56 1.45 t1.48 3.53 q0 2.1 -1.46 3.52 t-3.58 1.46 q-2.08 0 -3.54 -1.44 t-1.5 -3.54 q0 -2.06 1.45 -3.5 t3.59 -1.48 z M50.18 19.259999999999998 q0 1.46 0.86 2.37 t2.26 0.93 q1.42 0 2.26 -0.91 t0.86 -2.39 q0 -1.46 -0.84 -2.37 t-2.3 -0.93 q-1.42 0 -2.26 0.94 t-0.84 2.36 z M65.28 14.28 q0.5 0 0.8 0.12 l-0.08 1.94 q-0.52 -0.14 -0.9 -0.14 q-2.66 0 -2.7 2.96 l0 4.84 l-1.8 0 l0 -9.48 l1.8 0 l0 1.46 l0.04 0 q0.36 -0.76 1.16 -1.23 t1.68 -0.47 z M73.16 14.28 q2.1 0 3.43 1.38 t1.37 3.6 q0 2.22 -1.36 3.59 t-3.46 1.39 q-1.04 0 -1.94 -0.44 t-1.36 -1.16 l-0.04 0 l0 7 l-1.8 0 l0 -15.12 l1.8 0 l0 1.36 l0.04 0 q0.54 -0.76 1.42 -1.18 t1.9 -0.42 z M69.8 19.259999999999998 q0 1.48 0.87 2.39 t2.25 0.91 q1.44 0 2.27 -0.91 t0.85 -2.39 q0 -1.48 -0.85 -2.38 t-2.29 -0.92 q-1.42 0 -2.26 0.93 t-0.84 2.37 z M84.56 14.28 q2.18 0 3.39 1.37 t1.23 3.77 l0 0.5 l-7.6 0 q0 1.16 0.93 1.95 t2.27 0.81 q1.48 0 2.6 -1.42 l1.36 1.04 q-1.52 1.94 -4.2 1.94 q-2.18 0 -3.51 -1.39 t-1.37 -3.59 q0 -2.12 1.37 -3.53 t3.53 -1.45 z M87.26 18.48 q-0.04 -1.34 -0.76 -2.05 t-1.98 -0.71 q-0.84 0 -1.51 0.41 t-1.05 1.06 t-0.38 1.29 l5.68 0 z M93.84 11.86 l0 2.66 l2.58 0 l0 1.56 l-2.58 0 l0 4.56 q0 0.92 0.26 1.42 t1.1 0.5 q0.8 0 1.28 -0.28 l0 1.64 q-0.52 0.28 -1.64 0.32 q-1.08 0 -1.67 -0.33 t-0.86 -0.92 t-0.27 -1.85 l0 -5.06 l-2.08 0 l0 -1.56 l2.08 0 l0 -2.66 l1.8 0 z M100.54 8.88 l0 7.1 l0.04 0 q0.38 -0.8 1.23 -1.25 t1.89 -0.45 q1.58 0 2.51 0.96 t0.93 2.58 l0 6.18 l-1.8 0 l0 -5.66 q0 -1.1 -0.57 -1.74 t-1.59 -0.64 q-1.26 0 -1.94 0.82 t-0.7 2.26 l0 4.96 l-1.8 0 l0 -15.12 l1.8 0 z"></path></g><g id="SvgjsG7559" featureKey="text3" fill="url(#SvgjsLinearGradient7563)" transform="matrix(0.9683898678449095,0,0,0.9683898678449095,85.4505759574778,290.08057908346586)"></g>
			</g>
		</svg>
	